<svg width="31" height="34" viewBox="0 0 31 34" fill="none" xmlns="http://www.w3.org/2000/svg">
<g opacity="0.7" filter="url(#filter0_d_0_1)">
<path d="M25 15V22C25 23.6569 23.6569 25 22 25H8C6.34315 25 5 23.6569 5 22V8C5 6.34315 6.34315 5 8 5H16.8182" stroke="#565555" stroke-width="2"/>
</g>
<path opacity="0.7" d="M31 1C31 0.447715 30.5523 -2.03068e-07 30 -4.55949e-07L21 3.44841e-07C20.4477 7.66602e-09 20 0.447716 20 1C20 1.55228 20.4477 2 21 2L29 2V10C29 10.5523 29.4477 11 30 11C30.5523 11 31 10.5523 31 10L31 1ZM16.7071 15.7071L30.7071 1.70711L29.2929 0.292893L15.2929 14.2929L16.7071 15.7071Z" fill="#565555"/>
<defs>
<filter id="filter0_d_0_1" x="0" y="4" width="30" height="30" filterUnits="userSpaceOnUse" color-interpolation-filters="sRGB">
<feFlood flood-opacity="0" result="BackgroundImageFix"/>
<feColorMatrix in="SourceAlpha" type="matrix" values="0 0 0 0 0 0 0 0 0 0 0 0 0 0 0 0 0 0 127 0" result="hardAlpha"/>
<feOffset dy="4"/>
<feGaussianBlur stdDeviation="2"/>
<feComposite in2="hardAlpha" operator="out"/>
<feColorMatrix type="matrix" values="0 0 0 0 0 0 0 0 0 0 0 0 0 0 0 0 0 0 0.25 0"/>
<feBlend mode="normal" in2="BackgroundImageFix" result="effect1_dropShadow_0_1"/>
<feBlend mode="normal" in="SourceGraphic" in2="effect1_dropShadow_0_1" result="shape"/>
</filter>
</defs>
</svg>
