<svg width="20" height="18" viewBox="0 0 20 18" fill="none" xmlns="http://www.w3.org/2000/svg">
<path d="M9.05295 0.793267C9.35986 -0.111942 10.6401 -0.111943 10.947 0.793266L12.464 5.2674C12.6016 5.67325 12.9825 5.9463 13.411 5.9463H18.2264C19.2054 5.9463 19.6012 7.20757 18.7978 7.76697L14.9763 10.4277C14.6108 10.6822 14.4577 11.1477 14.6007 11.5695L16.0775 15.9251C16.3873 16.839 15.3509 17.6183 14.559 17.0669L10.5714 14.2905C10.228 14.0514 9.77201 14.0514 9.42859 14.2905L5.44099 17.0669C4.64907 17.6183 3.61269 16.839 3.92254 15.9251L5.39931 11.5695C5.54231 11.1477 5.38915 10.6822 5.02367 10.4277L1.20221 7.76697C0.398777 7.20757 0.794618 5.9463 1.77362 5.9463H6.58897C7.01751 5.9463 7.39841 5.67325 7.53601 5.2674L9.05295 0.793267Z" fill="#FBAF05"/>
</svg>
